<svg width="50" height="36" viewBox="0 0 50 36" fill="none" xmlns="http://www.w3.org/2000/svg">
<path d="M50 5.88554V29.8288C49.9981 31.3891 49.3774 32.885 48.274 33.9883C47.1707 35.0916 45.6748 35.7124 44.1145 35.7143H5.88554C4.32519 35.7124 2.82931 35.0916 1.72597 33.9883C0.622641 32.885 0.00193741 31.3891 0 29.8288V5.88554C0.00322088 5.15203 0.144741 4.4257 0.417143 3.74464L24.0164 19.3473C24.3084 19.5401 24.6506 19.6429 25.0004 19.6429C25.3503 19.6429 25.6925 19.5401 25.9845 19.3473L49.5621 3.67857C49.8497 4.37892 49.9984 5.12846 50 5.88554V5.88554ZM47.2529 0.925C46.3163 0.323684 45.2274 0.00273214 44.1145 0H5.88554C4.7466 0.00105033 3.63282 0.335047 2.68125 0.960892L25 15.7175L47.2529 0.925Z" fill="#EA3D5B"/>
</svg>
