<svg width="50" height="50" viewBox="0 0 50 50" fill="none" xmlns="http://www.w3.org/2000/svg">
<path d="M8.78369 0.000568394C7.45279 0.0295546 6.87706 0.442145 6.08102 1.35191L1.35134 6.75725C0.362749 7.88707 0 9.64883 0 11.4869C0 17.624 4.61691 27.5885 13.5134 36.4867C22.4115 45.3831 32.376 49.9999 38.5131 50C40.3512 50 42.1129 49.6373 43.2428 48.6487L48.6481 43.919C49.5579 43.1229 49.9704 42.5472 49.9995 41.2163C50.0207 40.2362 49.4398 39.3054 48.6481 38.5137L41.2158 31.0813C40.3816 30.2472 39.6648 29.7299 38.5131 29.73C37.3152 29.7299 36.5486 30.3432 35.8104 31.0813L33.1078 33.784C31.8697 34.9765 30.945 35.0674 29.7294 34.4597L15.5404 20.2706C14.9327 19.055 15.0236 18.1304 16.216 16.8923L18.9187 14.1896C19.6568 13.4515 20.2701 12.6848 20.2701 11.4869C20.2701 10.3351 19.7529 9.61841 18.9187 8.78426L11.4864 1.35191C10.6947 0.560245 9.76377 -0.0207557 8.78369 0.000568394V0.000568394Z" fill="#EA3D5B"/>
</svg>
