<svg width="19" height="74" viewBox="0 0 19 74" fill="none" xmlns="http://www.w3.org/2000/svg">
<path d="M18.606 72.0687V25.8002C18.606 20.5823 15.8499 19.1057 14.1763 18.1214C13.0865 17.478 12.5397 16.0054 12.2903 15.0532C12.1688 14.5866 12.1077 14.1063 12.1086 13.6241V3.55182H12.9128V0.0131836H5.69642V3.55584H6.50065V13.6241C6.50186 14.1076 6.44078 14.5893 6.31889 15.0572C6.07038 16.0086 5.5227 17.4844 4.43376 18.1254C2.76015 19.1098 0.00322902 20.5863 0.00322902 25.8042V72.0687C0.00322902 72.0687 -0.0948871 73.1512 0.790577 73.1512H17.8187C18.7041 73.1512 18.606 72.0687 18.606 72.0687Z" fill="black"/>
<path d="M12.2796 15.044C12.1577 14.5761 12.0966 14.0944 12.0979 13.6109V3.54266H12.9021V0H5.68408V3.54266H6.48832V13.6109C6.48941 14.0944 6.4286 14.576 6.30736 15.044" fill="#600C2E"/>
<path d="M5.58776 20.2183C6.11212 20.5095 6.29871 21.1673 6.05663 21.7158C5.68507 22.5506 5.02078 24.7848 5.02078 30.03V71.8712H1.28027V25.5046C1.28027 25.5046 1.45962 19.3924 4.92266 19.9915C5.1556 20.0289 5.38049 20.1056 5.58776 20.2183V20.2183Z" fill="url(#paint0_linear)"/>
<path d="M0.0170898 31.4111H18.5403V59.7629C18.5403 59.7629 14.8737 61.8297 10.5325 61.8297C6.19121 61.8297 0.0170898 59.5658 0.0170898 59.5658V31.4111Z" fill="#600C2E"/>
<path d="M5.11902 19.1729C5.11902 19.1729 6.97519 18.0067 7.26472 16.5124C7.55424 15.0182 8.56758 15.8023 8.36491 16.428C8.16224 17.0537 7.07813 19.4037 6.24816 19.5645C5.41819 19.7254 4.66302 19.4141 5.11902 19.1729Z" fill="url(#paint1_linear)"/>
<defs>
<linearGradient id="paint0_linear" x1="1.28027" y1="45.9104" x2="6.16118" y2="45.9104" gradientUnits="userSpaceOnUse">
<stop stop-color="white" stop-opacity="0.6"/>
<stop offset="1"/>
</linearGradient>
<linearGradient id="paint1_linear" x1="4.98149" y1="17.6263" x2="8.39145" y2="17.6263" gradientUnits="userSpaceOnUse">
<stop stop-color="white" stop-opacity="0.6"/>
<stop offset="1" stop-opacity="0.5"/>
</linearGradient>
</defs>
</svg>
